<svg version="1.1" xmlns="http://www.w3.org/2000/svg" xmlns:xlink="http://www.w3.org/1999/xlink" width="48px" height="48px" viewBox="0,0,256,256"><g transform="translate(-33.28,-33.28) scale(1.26,1.26)"><g fill="none" fill-rule="nonzero" stroke="none" stroke-width="1" stroke-linecap="butt" stroke-linejoin="miter" stroke-miterlimit="10" stroke-dasharray="" stroke-dashoffset="0" font-family="none" font-weight="none" font-size="none" text-anchor="none" style="mix-blend-mode: normal"><g transform="scale(5.33333,5.33333)"><path d="M13.449,5.439l-3.449,1.72v16.841h29l0.989,-1.708z" fill="#007211"></path><path d="M41,24h-4c0,-1.105 0.895,-2 2,-2c1.105,0 2,0.895 2,2z" fill="#007211"></path><circle cx="12.159" cy="7.159" r="2.159" fill="#007211"></circle><path d="M13.449,42.561l-3.449,-1.72v-16.841h29l0.989,1.708z" fill="#008e10"></path><path d="M41,24h-4c0,1.105 0.895,2 2,2c1.105,0 2,-0.895 2,-2z" fill="#008e10"></path><circle cx="12.159" cy="40.841" r="2.159" fill="#008e10"></circle></g></g></g></svg>